<mxfile host="Electron" modified="2023-11-14T09:40:52.777Z" agent="Mozilla/5.0 (Windows NT 10.0; Win64; x64) AppleWebKit/537.36 (KHTML, like Gecko) draw.io/21.7.5 Chrome/114.0.5735.289 Electron/25.8.1 Safari/537.36" etag="jKorVh1bmwoHPyTOavRV" version="21.7.5" type="device">
  <diagram id="g4bNSqnx32ZHG05jDUJd" name="Page-1">
    <mxGraphModel dx="810" dy="469" grid="1" gridSize="10" guides="1" tooltips="1" connect="1" arrows="1" fold="1" page="1" pageScale="1" pageWidth="827" pageHeight="1169" math="1" shadow="0">
      <root>
        <mxCell id="0" />
        <mxCell id="1" parent="0" />
        <mxCell id="ffK2FE_WAYJ0KSTquTjm-33" style="edgeStyle=orthogonalEdgeStyle;shape=connector;rounded=1;orthogonalLoop=1;jettySize=auto;html=1;exitX=1;exitY=1;exitDx=0;exitDy=0;entryX=1;entryY=0.5;entryDx=0;entryDy=0;entryPerimeter=0;labelBackgroundColor=default;strokeColor=default;fontFamily=Helvetica;fontSize=11;fontColor=default;endArrow=none;endFill=0;" edge="1" parent="1" source="8" target="10">
          <mxGeometry relative="1" as="geometry" />
        </mxCell>
        <mxCell id="ffK2FE_WAYJ0KSTquTjm-73" style="edgeStyle=orthogonalEdgeStyle;shape=connector;rounded=1;orthogonalLoop=1;jettySize=auto;html=1;exitX=1;exitY=0;exitDx=0;exitDy=0;labelBackgroundColor=default;strokeColor=default;fontFamily=Helvetica;fontSize=11;fontColor=default;endArrow=none;endFill=0;" edge="1" parent="1" source="8" target="ffK2FE_WAYJ0KSTquTjm-71">
          <mxGeometry relative="1" as="geometry" />
        </mxCell>
        <mxCell id="8" value="$$Q$$" style="shape=stencil(xZXdToQwEIWfprcGWhbx0qC+R5cdpVm2JaXu6ts7MLChsDUKGBNCMnOYr2dKf5jIm1LWwHh0YeKJcZ5E+MKwpDDrQ9nUUDjKnaVVcl8BKY2z5ggXdXB9idIlWOVaVTyz6BG/aR+RF0ZrhCijG08Z6QiTSmNt9EGwfvjPPrrbUVzjCCdwYCkfU5bxlx+DYx/8N9h4K+y18elETCEix0xookW+l8XxzZp3fZhXBbVXY+GGcJVVVdEi+KapWrbLYyYM8smcIfTThxV5Gz0QKqVHhEUI38QEwde7SDdwkf7eReIj4gWNTBDr+9glq03cr+8jW9DIBi6Ev5fTh/9xkfkuAgfK6IAI7GG8QkK7vyubHR9dlq6dLvEF);whiteSpace=wrap;html=1;labelPosition=right;verticalLabelPosition=middle;align=left;verticalAlign=middle;fontSize=15;" parent="1" vertex="1">
          <mxGeometry x="420" y="250" width="40" height="80" as="geometry" />
        </mxCell>
        <mxCell id="10" value="$$R_E$$" style="pointerEvents=1;verticalLabelPosition=bottom;shadow=0;dashed=0;align=center;html=1;verticalAlign=top;shape=mxgraph.electrical.resistors.resistor_1;labelPosition=center;spacingBottom=0;spacingLeft=25;direction=west;spacingTop=10;spacing=0;points=[[0,0.5,0,0,0],[0.5,0,0,0,-3],[0.5,1,0,0,2],[1,0.5,0,0,0]];fillColor=none;rotation=90;horizontal=0;fontSize=15;" parent="1" vertex="1">
          <mxGeometry x="430" y="370" width="60" height="20" as="geometry" />
        </mxCell>
        <mxCell id="21" value="" style="edgeStyle=orthogonalEdgeStyle;shape=connector;rounded=1;html=1;labelBackgroundColor=default;strokeColor=default;fontFamily=Helvetica;fontSize=11;fontColor=default;endArrow=none;endFill=0;" parent="1" source="15" target="10" edge="1">
          <mxGeometry relative="1" as="geometry" />
        </mxCell>
        <mxCell id="15" value="" style="shape=stencil(pZPZDoIwEEW/pq+mtOLyaFD/o8AojdiSUre/tzCgVmji8kIy9zJnbiZTwpO6EBUQRgvC14QxRt3HlRe/FHUFmUXtLIwUaQno1NboA1xkbjuCVAUYaRuXbwhdkYZBCU8yrZSDSK1qz3nxHUxI5XrpFWF0EuOYW1djVbkJR7BgUI1QJWz7NtIpoak8SUV22Bt9UvmwK+jttIER42HLssSNjOTpf6pEs6uB0dtHfYbnBiI6toBxdE8opQoT4k8Ifobp94C3CLN/I/iA+Q8Rpt8T/AgLD7D8IQL7nNBeYeBQ3KMNnVjbNrjRVsWH3gp3);whiteSpace=wrap;html=1;fontFamily=Helvetica;fontSize=11;fontColor=default;" parent="1" vertex="1">
          <mxGeometry x="435" y="430" width="50" height="50" as="geometry" />
        </mxCell>
        <mxCell id="26" value="$$V_{in}$$" style="text;html=1;strokeColor=none;fillColor=none;align=center;verticalAlign=middle;whiteSpace=wrap;rounded=0;fontFamily=Helvetica;fontSize=15;fontColor=default;" parent="1" vertex="1">
          <mxGeometry x="180" y="250" width="60" height="30" as="geometry" />
        </mxCell>
        <mxCell id="27" value="$$V_{out}$$" style="text;html=1;strokeColor=none;fillColor=none;align=center;verticalAlign=middle;whiteSpace=wrap;rounded=0;fontFamily=Helvetica;fontSize=15;fontColor=default;" parent="1" vertex="1">
          <mxGeometry x="550" y="210" width="60" height="30" as="geometry" />
        </mxCell>
        <mxCell id="ffK2FE_WAYJ0KSTquTjm-36" style="edgeStyle=orthogonalEdgeStyle;shape=connector;rounded=1;orthogonalLoop=1;jettySize=auto;html=1;exitDx=0;exitDy=0;exitPerimeter=0;entryX=0.5;entryY=0;entryDx=0;entryDy=0;entryPerimeter=0;labelBackgroundColor=default;strokeColor=default;fontFamily=Helvetica;fontSize=11;fontColor=default;endArrow=none;endFill=0;" edge="1" parent="1" source="ffK2FE_WAYJ0KSTquTjm-39">
          <mxGeometry relative="1" as="geometry">
            <mxPoint x="460" y="110" as="targetPoint" />
          </mxGeometry>
        </mxCell>
        <mxCell id="ffK2FE_WAYJ0KSTquTjm-72" style="edgeStyle=orthogonalEdgeStyle;shape=connector;rounded=1;orthogonalLoop=1;jettySize=auto;html=1;exitX=0;exitY=0.5;exitDx=0;exitDy=0;exitPerimeter=0;entryX=0.536;entryY=0.345;entryDx=0;entryDy=0;entryPerimeter=0;labelBackgroundColor=default;strokeColor=default;fontFamily=Helvetica;fontSize=11;fontColor=default;endArrow=none;endFill=0;" edge="1" parent="1" source="ffK2FE_WAYJ0KSTquTjm-34" target="ffK2FE_WAYJ0KSTquTjm-71">
          <mxGeometry relative="1" as="geometry" />
        </mxCell>
        <mxCell id="ffK2FE_WAYJ0KSTquTjm-34" value="$$R_C$$" style="pointerEvents=1;verticalLabelPosition=bottom;shadow=0;dashed=0;align=center;html=1;verticalAlign=top;shape=mxgraph.electrical.resistors.resistor_1;labelPosition=center;spacingBottom=0;spacingLeft=25;direction=west;spacingTop=10;spacing=0;points=[[0,0.5,0,0,0],[0.5,0,0,0,-3],[0.5,1,0,0,2],[1,0.5,0,0,0]];fillColor=none;rotation=90;horizontal=0;fontSize=15;" vertex="1" parent="1">
          <mxGeometry x="430" y="170" width="60" height="20" as="geometry" />
        </mxCell>
        <mxCell id="ffK2FE_WAYJ0KSTquTjm-42" value="" style="edgeStyle=orthogonalEdgeStyle;shape=connector;rounded=1;orthogonalLoop=1;jettySize=auto;html=1;labelBackgroundColor=default;strokeColor=default;fontFamily=Helvetica;fontSize=11;fontColor=default;endArrow=none;endFill=0;" edge="1" parent="1" source="ffK2FE_WAYJ0KSTquTjm-37" target="ffK2FE_WAYJ0KSTquTjm-41">
          <mxGeometry relative="1" as="geometry" />
        </mxCell>
        <mxCell id="ffK2FE_WAYJ0KSTquTjm-60" style="edgeStyle=orthogonalEdgeStyle;shape=connector;rounded=1;orthogonalLoop=1;jettySize=auto;html=1;exitX=0;exitY=0.5;exitDx=0;exitDy=0;exitPerimeter=0;entryX=0.523;entryY=0.379;entryDx=0;entryDy=0;entryPerimeter=0;labelBackgroundColor=default;strokeColor=default;fontFamily=Helvetica;fontSize=11;fontColor=default;endArrow=none;endFill=0;" edge="1" parent="1" source="ffK2FE_WAYJ0KSTquTjm-37" target="ffK2FE_WAYJ0KSTquTjm-56">
          <mxGeometry relative="1" as="geometry">
            <mxPoint x="330" y="230" as="sourcePoint" />
          </mxGeometry>
        </mxCell>
        <mxCell id="ffK2FE_WAYJ0KSTquTjm-37" value="$$R_1$$" style="pointerEvents=1;verticalLabelPosition=bottom;shadow=0;dashed=0;align=center;html=1;verticalAlign=top;shape=mxgraph.electrical.resistors.resistor_1;labelPosition=center;spacingBottom=0;spacingLeft=25;direction=west;spacingTop=10;spacing=0;points=[[0,0.5,0,0,0],[0.5,0,0,0,-3],[0.5,1,0,0,2],[1,0.5,0,0,0]];fillColor=none;rotation=90;horizontal=0;fontSize=15;" vertex="1" parent="1">
          <mxGeometry x="300" y="170" width="60" height="20" as="geometry" />
        </mxCell>
        <mxCell id="ffK2FE_WAYJ0KSTquTjm-49" value="" style="edgeStyle=orthogonalEdgeStyle;shape=connector;rounded=1;orthogonalLoop=1;jettySize=auto;html=1;labelBackgroundColor=default;strokeColor=default;fontFamily=Helvetica;fontSize=11;fontColor=default;endArrow=none;endFill=0;" edge="1" parent="1" source="ffK2FE_WAYJ0KSTquTjm-38" target="ffK2FE_WAYJ0KSTquTjm-48">
          <mxGeometry relative="1" as="geometry" />
        </mxCell>
        <mxCell id="ffK2FE_WAYJ0KSTquTjm-38" value="$$R_2$$" style="pointerEvents=1;verticalLabelPosition=bottom;shadow=0;dashed=0;align=center;html=1;verticalAlign=top;shape=mxgraph.electrical.resistors.resistor_1;labelPosition=center;spacingBottom=0;spacingLeft=25;direction=west;spacingTop=10;spacing=0;points=[[0,0.5,0,0,0],[0.5,0,0,0,-3],[0.5,1,0,0,2],[1,0.5,0,0,0]];fillColor=none;rotation=90;horizontal=0;fontSize=15;" vertex="1" parent="1">
          <mxGeometry x="300" y="370" width="60" height="20" as="geometry" />
        </mxCell>
        <mxCell id="ffK2FE_WAYJ0KSTquTjm-40" value="" style="edgeStyle=orthogonalEdgeStyle;shape=connector;rounded=1;orthogonalLoop=1;jettySize=auto;html=1;exitX=1;exitY=0.5;exitDx=0;exitDy=0;exitPerimeter=0;entryDx=0;entryDy=0;entryPerimeter=0;labelBackgroundColor=default;strokeColor=default;fontFamily=Helvetica;fontSize=11;fontColor=default;endArrow=none;endFill=0;" edge="1" parent="1" source="ffK2FE_WAYJ0KSTquTjm-34" target="ffK2FE_WAYJ0KSTquTjm-39">
          <mxGeometry relative="1" as="geometry">
            <mxPoint x="460" y="150" as="sourcePoint" />
            <mxPoint x="460" y="110" as="targetPoint" />
          </mxGeometry>
        </mxCell>
        <mxCell id="ffK2FE_WAYJ0KSTquTjm-47" value="" style="edgeStyle=orthogonalEdgeStyle;shape=connector;rounded=1;orthogonalLoop=1;jettySize=auto;html=1;labelBackgroundColor=default;strokeColor=default;fontFamily=Helvetica;fontSize=11;fontColor=default;endArrow=none;endFill=0;" edge="1" parent="1" source="ffK2FE_WAYJ0KSTquTjm-39">
          <mxGeometry relative="1" as="geometry">
            <mxPoint x="520" y="110" as="targetPoint" />
          </mxGeometry>
        </mxCell>
        <mxCell id="ffK2FE_WAYJ0KSTquTjm-39" value="" style="shape=waypoint;sketch=0;fillStyle=solid;size=6;pointerEvents=1;points=[];fillColor=none;resizable=0;rotatable=0;perimeter=centerPerimeter;snapToPoint=1;fontFamily=Helvetica;fontSize=11;fontColor=default;" vertex="1" parent="1">
          <mxGeometry x="450" y="100" width="20" height="20" as="geometry" />
        </mxCell>
        <mxCell id="ffK2FE_WAYJ0KSTquTjm-43" value="" style="edgeStyle=orthogonalEdgeStyle;shape=connector;rounded=1;orthogonalLoop=1;jettySize=auto;html=1;labelBackgroundColor=default;strokeColor=default;fontFamily=Helvetica;fontSize=11;fontColor=default;endArrow=none;endFill=0;" edge="1" parent="1" source="ffK2FE_WAYJ0KSTquTjm-41" target="ffK2FE_WAYJ0KSTquTjm-39">
          <mxGeometry relative="1" as="geometry" />
        </mxCell>
        <mxCell id="ffK2FE_WAYJ0KSTquTjm-45" value="" style="edgeStyle=orthogonalEdgeStyle;shape=connector;rounded=1;orthogonalLoop=1;jettySize=auto;html=1;labelBackgroundColor=default;strokeColor=default;fontFamily=Helvetica;fontSize=11;fontColor=default;endArrow=none;endFill=0;" edge="1" parent="1" source="ffK2FE_WAYJ0KSTquTjm-41" target="ffK2FE_WAYJ0KSTquTjm-44">
          <mxGeometry relative="1" as="geometry" />
        </mxCell>
        <mxCell id="ffK2FE_WAYJ0KSTquTjm-41" value="" style="shape=waypoint;sketch=0;fillStyle=solid;size=6;pointerEvents=1;points=[];fillColor=none;resizable=0;rotatable=0;perimeter=centerPerimeter;snapToPoint=1;fontFamily=Helvetica;fontSize=11;fontColor=default;" vertex="1" parent="1">
          <mxGeometry x="320" y="100" width="20" height="20" as="geometry" />
        </mxCell>
        <mxCell id="ffK2FE_WAYJ0KSTquTjm-44" value="$$V_{CC}$$" style="text;html=1;strokeColor=none;fillColor=none;align=center;verticalAlign=middle;whiteSpace=wrap;rounded=0;fontSize=15;fontFamily=Helvetica;fontColor=default;" vertex="1" parent="1">
          <mxGeometry x="220" y="95" width="60" height="30" as="geometry" />
        </mxCell>
        <mxCell id="ffK2FE_WAYJ0KSTquTjm-48" value="" style="shape=stencil(pZPZDoIwEEW/pq+mtOLyaFD/o8AojdiSUre/tzCgVmji8kIy9zJnbiZTwpO6EBUQRgvC14QxRt3HlRe/FHUFmUXtLIwUaQno1NboA1xkbjuCVAUYaRuXbwhdkYZBCU8yrZSDSK1qz3nxHUxI5XrpFWF0EuOYW1djVbkJR7BgUI1QJWz7NtIpoak8SUV22Bt9UvmwK+jttIER42HLssSNjOTpf6pEs6uB0dtHfYbnBiI6toBxdE8opQoT4k8Ifobp94C3CLN/I/iA+Q8Rpt8T/AgLD7D8IQL7nNBeYeBQ3KMNnVjbNrjRVsWH3gp3);whiteSpace=wrap;html=1;fontFamily=Helvetica;fontSize=11;fontColor=default;" vertex="1" parent="1">
          <mxGeometry x="305" y="430" width="50" height="50" as="geometry" />
        </mxCell>
        <mxCell id="ffK2FE_WAYJ0KSTquTjm-52" value="" style="edgeStyle=orthogonalEdgeStyle;shape=connector;rounded=1;orthogonalLoop=1;jettySize=auto;html=1;labelBackgroundColor=default;strokeColor=default;fontFamily=Helvetica;fontSize=11;fontColor=default;endArrow=none;endFill=0;" edge="1" parent="1" source="ffK2FE_WAYJ0KSTquTjm-50" target="ffK2FE_WAYJ0KSTquTjm-38">
          <mxGeometry relative="1" as="geometry" />
        </mxCell>
        <mxCell id="ffK2FE_WAYJ0KSTquTjm-53" value="" style="edgeStyle=orthogonalEdgeStyle;shape=connector;rounded=1;orthogonalLoop=1;jettySize=auto;html=1;labelBackgroundColor=default;strokeColor=default;fontFamily=Helvetica;fontSize=11;fontColor=default;endArrow=none;endFill=0;" edge="1" parent="1" source="ffK2FE_WAYJ0KSTquTjm-50" target="8">
          <mxGeometry relative="1" as="geometry" />
        </mxCell>
        <mxCell id="ffK2FE_WAYJ0KSTquTjm-50" value="" style="shape=waypoint;sketch=0;fillStyle=solid;size=6;pointerEvents=1;points=[];fillColor=none;resizable=0;rotatable=0;perimeter=centerPerimeter;snapToPoint=1;fontFamily=Helvetica;fontSize=11;fontColor=default;" vertex="1" parent="1">
          <mxGeometry x="320" y="280" width="20" height="20" as="geometry" />
        </mxCell>
        <mxCell id="ffK2FE_WAYJ0KSTquTjm-62" value="" style="edgeStyle=orthogonalEdgeStyle;shape=connector;rounded=1;orthogonalLoop=1;jettySize=auto;html=1;labelBackgroundColor=default;strokeColor=default;fontFamily=Helvetica;fontSize=11;fontColor=default;endArrow=none;endFill=0;" edge="1" parent="1" source="ffK2FE_WAYJ0KSTquTjm-56" target="ffK2FE_WAYJ0KSTquTjm-38">
          <mxGeometry relative="1" as="geometry" />
        </mxCell>
        <mxCell id="ffK2FE_WAYJ0KSTquTjm-56" value="" style="shape=waypoint;sketch=0;fillStyle=solid;size=6;pointerEvents=1;points=[];fillColor=none;resizable=0;rotatable=0;perimeter=centerPerimeter;snapToPoint=1;fontFamily=Helvetica;fontSize=11;fontColor=default;" vertex="1" parent="1">
          <mxGeometry x="320" y="255" width="20" height="20" as="geometry" />
        </mxCell>
        <mxCell id="ffK2FE_WAYJ0KSTquTjm-79" value="" style="edgeStyle=orthogonalEdgeStyle;shape=connector;rounded=1;orthogonalLoop=1;jettySize=auto;html=1;labelBackgroundColor=default;strokeColor=default;fontFamily=Helvetica;fontSize=11;fontColor=default;endArrow=none;endFill=0;" edge="1" parent="1" source="ffK2FE_WAYJ0KSTquTjm-71" target="ffK2FE_WAYJ0KSTquTjm-78">
          <mxGeometry relative="1" as="geometry" />
        </mxCell>
        <mxCell id="ffK2FE_WAYJ0KSTquTjm-71" value="" style="shape=waypoint;sketch=0;fillStyle=solid;size=6;pointerEvents=1;points=[];fillColor=none;resizable=0;rotatable=0;perimeter=centerPerimeter;snapToPoint=1;fontFamily=Helvetica;fontSize=11;fontColor=default;" vertex="1" parent="1">
          <mxGeometry x="450" y="215" width="20" height="20" as="geometry" />
        </mxCell>
        <mxCell id="ffK2FE_WAYJ0KSTquTjm-76" value="" style="edgeStyle=orthogonalEdgeStyle;shape=connector;rounded=1;orthogonalLoop=1;jettySize=auto;html=1;labelBackgroundColor=default;strokeColor=default;fontFamily=Helvetica;fontSize=11;fontColor=default;endArrow=none;endFill=0;" edge="1" parent="1" source="ffK2FE_WAYJ0KSTquTjm-75" target="ffK2FE_WAYJ0KSTquTjm-56">
          <mxGeometry relative="1" as="geometry" />
        </mxCell>
        <mxCell id="ffK2FE_WAYJ0KSTquTjm-77" value="" style="edgeStyle=orthogonalEdgeStyle;shape=connector;rounded=1;orthogonalLoop=1;jettySize=auto;html=1;labelBackgroundColor=default;strokeColor=default;fontFamily=Helvetica;fontSize=11;fontColor=default;endArrow=none;endFill=0;" edge="1" parent="1" source="ffK2FE_WAYJ0KSTquTjm-75" target="26">
          <mxGeometry relative="1" as="geometry" />
        </mxCell>
        <mxCell id="ffK2FE_WAYJ0KSTquTjm-75" value="$$C_{in}$$" style="pointerEvents=1;verticalLabelPosition=middle;shadow=0;dashed=0;align=left;html=1;verticalAlign=top;shape=mxgraph.electrical.capacitors.capacitor_1;labelPosition=center;spacingBottom=0;spacingLeft=25;direction=east;spacing=0;spacingTop=10;points=[[0,0.5,0,0,0],[0.5,0,0,0,-3],[0.5,1,0,0,2],[1,0.5,0,0,0]];fillColor=none;fontFamily=Helvetica;fontSize=15;fontColor=default;" vertex="1" parent="1">
          <mxGeometry x="250" y="255" width="60" height="20" as="geometry" />
        </mxCell>
        <mxCell id="ffK2FE_WAYJ0KSTquTjm-80" value="" style="edgeStyle=orthogonalEdgeStyle;shape=connector;rounded=1;orthogonalLoop=1;jettySize=auto;html=1;labelBackgroundColor=default;strokeColor=default;fontFamily=Helvetica;fontSize=11;fontColor=default;endArrow=none;endFill=0;" edge="1" parent="1" source="ffK2FE_WAYJ0KSTquTjm-78" target="27">
          <mxGeometry relative="1" as="geometry" />
        </mxCell>
        <mxCell id="ffK2FE_WAYJ0KSTquTjm-78" value="$$C_{out}$$" style="pointerEvents=1;verticalLabelPosition=middle;shadow=0;dashed=0;align=left;html=1;verticalAlign=top;shape=mxgraph.electrical.capacitors.capacitor_1;labelPosition=center;spacingBottom=0;spacingLeft=25;direction=east;spacing=0;spacingTop=10;points=[[0,0.5,0,0,0],[0.5,0,0,0,-3],[0.5,1,0,0,2],[1,0.5,0,0,0]];fillColor=none;fontFamily=Helvetica;fontSize=15;fontColor=default;" vertex="1" parent="1">
          <mxGeometry x="480" y="215" width="60" height="20" as="geometry" />
        </mxCell>
      </root>
    </mxGraphModel>
  </diagram>
</mxfile>
